<?xml version="1.0" encoding="utf-8"?>
<!-- Generator: Adobe Illustrator 24.0.1, SVG Export Plug-In . SVG Version: 6.00 Build 0)  -->
<svg version="1.1" id="Beeld" xmlns="http://www.w3.org/2000/svg" xmlns:xlink="http://www.w3.org/1999/xlink" x="0px" y="0px"
	 viewBox="0 0 877.4 247.8" style="enable-background:new 0 0 877.4 247.8;" xml:space="preserve">
<style type="text/css">
	.st0{fill:#3A3A39;}
	.st1{fill:#E3000B;}
	.st2{fill:#FFFFFF;}
</style>
<path class="st0" d="M433.7,13.6h115c2.3,0,3.5,1.4,3.5,4.2v22.9c0,1.6-0.4,2.9-1.3,3.8c-0.9,1-2.2,1.4-4,1.4h-68
	c-3.1,0-4.6,1.3-4.6,4v24.9c0,1.3,0.3,2.3,1,3.1c0.7,0.7,1.5,1.1,2.5,1.1h42.9c2.8,0,4.2,1.3,4.2,4v24.4c0,2.2-1.2,3.3-3.5,3.3
	h-43.8c-2.2,0-3.3,1-3.3,3.1v27.9c0,1,0.2,1.8,0.5,2.2c0.4,0.4,1,0.7,1.9,0.7H550c1.5,0,2.6,0.3,3.3,0.9c0.7,0.6,1.1,1.5,1.1,2.9
	v24.2c0,2.9-1.5,4.4-4.6,4.4H435.2c-1.9,0-3.3-0.4-4.1-1.2c-0.8-0.8-1.2-2.1-1.2-3.8V18.2C429.9,15.1,431.2,13.6,433.7,13.6z"/>
<path class="st0" d="M656.5,45.4c-4.5-2.3-10.6-3.4-18.4-3.4c-8.2,0-14.4,1.4-18.6,4.1c-4.2,2.7-6.3,6.1-6.3,10.2
	c0,2.8,1.2,5.4,3.5,7.9c2.3,2.5,6.5,4.5,12.3,5.9l35.6,9.7c13.2,3.5,23.1,9.4,29.7,17.6c6.6,8.2,9.9,18,9.9,29.5
	c0,10.6-2.8,19.8-8.2,27.6c-5.5,7.8-13.4,13.9-23.6,18.1c-10.3,4.3-22.3,6.4-36.1,6.4c-15.5,0-29.7-2.6-42.3-7.8
	c-12.7-5.2-21.7-12.2-26.9-21c-0.7-1.5-1.1-2.6-1.1-3.3c0-1.2,0.8-2.3,2.4-3.5l19.8-13.6c1.6-1,3-1.5,4.2-1.5c1.5,0,2.6,0.6,3.5,1.8
	c5.3,6.7,10.6,11.5,15.9,14.3c5.4,2.8,12.4,4.2,21.2,4.2c8.9,0,16-1.3,21.2-4c5.2-2.6,7.8-6.5,7.8-11.4c0-6.7-5.4-11.6-16.1-14.5
	l-33.4-8.8c-12.9-3.4-23-9.3-30.4-17.9c-7.3-8.6-11-18.4-11-29.6c0-9.5,2.7-18.1,8.1-25.8c5.4-7.7,13.1-13.8,23-18.3
	c9.9-4.5,21.4-6.7,34.4-6.7c12.6,0,24.3,2.1,35.2,6.4c10.9,4.3,18.9,9.9,24.2,16.9c1,1.8,1.5,3,1.5,3.7c0,0.7-0.5,1.5-1.5,2.4
	l-21.6,15.6c-0.6,0.6-1.2,0.9-2,0.9c-0.9,0-2.2-0.9-4-2.6C665,50.8,660.9,47.6,656.5,45.4z"/>
<path class="st0" d="M710.5,175.7c-0.7-0.7-1-1.8-1-3.1c0-1,0.2-2.1,0.7-3.1l54.1-151.3c0.6-1.8,1.3-3,2.2-3.6c0.9-0.7,2.2-1,4-1
	h38.3c3.5,0,6,1.8,7.5,5.5L869.6,170c0.1,0.4,0.2,1.2,0.2,2.2c0,1.3-0.3,2.4-0.8,3.3c-0.5,0.9-1.3,1.3-2.3,1.3h-38.1
	c-2.3,0-3.9-1.2-4.6-3.5l-9.7-28.6c-0.4-0.9-0.8-1.5-1.2-1.9c-0.4-0.4-1.1-0.5-2.1-0.5h-49.9c-1.6,0-2.6,0.8-3.1,2.4l-10.3,29
	c-0.7,2.1-2.3,3.1-4.8,3.1h-29.7C712.1,176.8,711.1,176.4,710.5,175.7z M801.2,108.8c1.5,0,2.2-0.7,2.2-2.2c0-0.9-0.1-1.5-0.2-2
	l-15.8-44.2c-0.1-0.9-0.6-1.3-1.3-1.3c-0.6,0-1,0.4-1.3,1.3l-16.1,44.2c-0.3,0.6-0.4,1.3-0.4,2.2c0,1.3,0.9,2,2.6,2H801.2z"/>
<g>
	<path class="st0" d="M271.8,202c0-0.5,0.3-0.8,0.9-0.8H301c0.6,0,0.9,0.3,0.9,0.8v3.9c0,0.5-0.3,0.7-0.8,0.7h-9.7
		c-0.2,0-0.3,0-0.4,0.1c-0.1,0.1-0.1,0.2-0.1,0.4v30.6c0,0.6-0.3,0.9-0.8,0.9h-6c-0.5,0-0.7-0.3-0.7-0.8v-30.6c0-0.2,0-0.4-0.1-0.5
		c-0.1-0.1-0.2-0.1-0.4-0.1h-10.1c-0.3,0-0.5-0.1-0.7-0.2c-0.1-0.1-0.2-0.3-0.2-0.6V202z"/>
	<path class="st0" d="M306,237.8v-35.7c0-0.6,0.3-0.9,0.8-0.9h5c0.4,0,0.7,0.3,0.7,0.8v13.1c0,0.2,0.1,0.3,0.2,0.4
		c0.1,0,0.2,0,0.4-0.2c1.7-1.4,3.2-2.4,4.5-3c1.3-0.6,2.8-0.9,4.3-0.9c2.6,0,4.6,0.7,6,2.1c1.4,1.4,2.1,3.3,2.1,5.8v18.3
		c0,0.7-0.4,1.1-1.1,1.1h-4.6c-0.3,0-0.6-0.1-0.7-0.2c-0.1-0.1-0.2-0.4-0.2-0.7v-17.4c0-1.3-0.4-2.3-1.1-3.1
		c-0.7-0.7-1.7-1.1-3.1-1.1c-1.2,0-2.3,0.3-3.2,0.8c-1,0.5-2.1,1.4-3.3,2.6v18c0,0.4-0.1,0.6-0.3,0.8c-0.2,0.2-0.5,0.2-0.9,0.2h-4.5
		C306.3,238.7,306,238.4,306,237.8z"/>
	<path class="st0" d="M342,207c0,0.4-0.1,0.7-0.3,0.9c-0.2,0.2-0.5,0.3-0.9,0.3h-4.6c-0.4,0-0.6-0.1-0.8-0.3
		c-0.1-0.2-0.2-0.4-0.2-0.8v-4.9c0-0.6,0.3-1,0.8-1h5.2c0.2,0,0.4,0.1,0.6,0.2c0.1,0.2,0.2,0.4,0.2,0.6V207z M341.9,237.6
		c0,0.4-0.1,0.7-0.3,0.9c-0.2,0.2-0.5,0.3-0.9,0.3h-4.4c-0.4,0-0.6-0.1-0.8-0.2c-0.1-0.1-0.2-0.4-0.2-0.7v-25c0-0.6,0.3-0.9,0.8-0.9
		h5.1c0.5,0,0.7,0.3,0.7,0.8V237.6z"/>
	<path class="st0" d="M347.9,238.5c-0.1-0.1-0.2-0.4-0.2-0.7v-25c0-0.6,0.2-0.9,0.7-0.9h5c0.4,0,0.7,0.3,0.7,0.8v2.6
		c0,0.2,0.1,0.3,0.2,0.4c0.1,0,0.2,0,0.4-0.2c1.6-1.4,3.1-2.4,4.4-3.1c1.4-0.7,2.8-1,4.4-1c2.5,0,4.4,0.7,5.9,2.1
		c1.4,1.4,2.1,3.3,2.1,5.7v18.4c0,0.7-0.4,1.1-1.1,1.1h-4.6c-0.3,0-0.6-0.1-0.7-0.2c-0.1-0.1-0.2-0.4-0.2-0.7v-17.4
		c0-1.3-0.4-2.3-1.1-3.1c-0.7-0.7-1.8-1.1-3.2-1.1c-1.2,0-2.2,0.3-3.2,0.8c-1,0.5-2,1.4-3.3,2.6v18c0,0.4-0.1,0.6-0.3,0.8
		c-0.2,0.2-0.5,0.2-0.9,0.2h-4.5C348.2,238.7,348,238.6,347.9,238.5z"/>
	<path class="st0" d="M402.6,238.1c0,0.4-0.3,0.6-0.8,0.6h-5.6c-0.5,0-0.9-0.3-1.2-0.9l-6.1-11.3c-0.1-0.3-0.2-0.4-0.4-0.4
		c-0.1,0-0.2,0.1-0.4,0.3l-4.2,4.1c-0.3,0.2-0.5,0.6-0.5,1.2v6c0,0.4-0.1,0.7-0.3,0.9c-0.2,0.2-0.5,0.2-0.9,0.2h-4.4
		c-0.4,0-0.6-0.1-0.8-0.2c-0.2-0.1-0.2-0.4-0.2-0.7v-35.7c0-0.6,0.3-0.9,0.8-0.9h5.1c0.5,0,0.7,0.3,0.7,0.8v21.6
		c0,0.3,0.1,0.4,0.2,0.4c0.1,0,0.3-0.1,0.4-0.3l10.5-11.2c0.5-0.5,0.9-0.7,1.3-0.7h4.6c0.5,0,0.8,0.2,0.8,0.5c0,0.2-0.1,0.4-0.3,0.7
		l-7.4,7.5c-0.2,0.2-0.3,0.4-0.3,0.6c0,0.2,0.1,0.4,0.2,0.7l8.9,15.8C402.6,237.7,402.6,237.9,402.6,238.1z"/>
	<path class="st0" d="M431.1,216.4c-1.1-0.5-2.3-0.8-3.7-0.8c-1.5,0-2.7,0.3-3.7,0.9s-1.4,1.4-1.4,2.4c0,0.6,0.2,1.1,0.7,1.5
		s1.3,0.8,2.6,1.2l6,1.6c2.5,0.6,4.4,1.6,5.6,2.9c1.2,1.3,1.8,2.9,1.8,4.7c0,1.7-0.5,3.2-1.5,4.5c-1,1.3-2.4,2.2-4.1,2.9
		c-1.8,0.7-3.8,1-6,1c-2.8,0-5.2-0.5-7.3-1.5s-3.6-2.4-4.4-4c-0.1-0.3-0.2-0.5-0.2-0.6c0-0.2,0.1-0.4,0.3-0.5l3-1.5
		c0.2-0.1,0.4-0.2,0.6-0.2c0.1,0,0.3,0.1,0.5,0.3c0.8,1.1,1.8,2.1,3,2.7c1.2,0.7,2.7,1,4.5,1c1.7,0,3.1-0.3,4.2-0.9
		c1.1-0.6,1.6-1.4,1.6-2.4c0-0.7-0.3-1.3-0.9-1.8c-0.6-0.5-1.6-0.9-3.1-1.3l-5.1-1.2c-2.6-0.6-4.4-1.5-5.6-2.7
		c-1.2-1.2-1.8-2.8-1.8-4.6c0-1.6,0.4-3.1,1.3-4.4c0.9-1.3,2.2-2.3,3.8-3c1.7-0.7,3.6-1.1,5.8-1.1c2.4,0,4.5,0.4,6.4,1.3
		c1.8,0.9,3.2,2,4.1,3.4c0.2,0.3,0.3,0.5,0.3,0.7c0,0.2-0.1,0.3-0.3,0.4l-3.1,1.6c-0.2,0.1-0.3,0.1-0.4,0.1c-0.3,0-0.5-0.1-0.7-0.4
		C433.1,217.6,432.2,216.9,431.1,216.4z"/>
	<path class="st0" d="M443.3,238.5c-0.1-0.1-0.2-0.4-0.2-0.7v-25c0-0.6,0.2-0.9,0.7-0.9h5c0.5,0,0.7,0.3,0.7,0.8v2.6
		c0,0.2,0.1,0.3,0.2,0.4c0.1,0,0.2,0,0.4-0.2c1.5-1.4,2.9-2.4,4.3-3.1c1.3-0.7,2.8-1,4.3-1c1.8,0,3.3,0.4,4.6,1.3
		c1.2,0.9,2.1,2,2.6,3.4c0.1,0.1,0.2,0.2,0.3,0.2c0.1,0,0.3-0.1,0.5-0.3c3-3,6-4.5,8.9-4.5c2.4,0,4.3,0.7,5.7,2.1
		c1.4,1.4,2.1,3.4,2.1,5.9v18.2c0,0.7-0.4,1.1-1.1,1.1h-4.6c-0.3,0-0.5-0.1-0.7-0.2c-0.1-0.1-0.2-0.4-0.2-0.7v-17.4
		c0-1.3-0.3-2.3-1-3.1c-0.7-0.7-1.6-1.1-2.9-1.1c-1,0-2.1,0.3-3,0.8c-1,0.6-1.9,1.2-2.6,2c-0.4,0.4-0.6,0.9-0.6,1.5v17.1
		c0,0.7-0.4,1.1-1.1,1.1h-4.6c-0.6,0-0.9-0.3-0.9-0.9v-17.4c0-1.3-0.3-2.3-1-3.1c-0.7-0.7-1.6-1.1-3-1.1c-1.1,0-2.1,0.3-3.1,0.8
		c-1,0.5-2,1.4-3.2,2.6v18c0,0.4-0.1,0.6-0.3,0.8c-0.2,0.2-0.5,0.2-0.9,0.2H444C443.7,238.7,443.5,238.6,443.3,238.5z"/>
	<path class="st0" d="M495.5,239.2c-2.6,0-4.6-0.7-6.1-2s-2.2-3.1-2.2-5.3c0-2.8,1.2-5,3.7-6.7c2.5-1.6,6-2.6,10.4-2.7l2.5-0.2
		c0.5-0.1,0.8-0.3,0.8-0.8v-1.2c0-1.5-0.4-2.6-1.3-3.5c-0.9-0.8-2.1-1.2-3.7-1.2c-2.6,0-4.5,1.1-5.9,3.3c-0.1,0.1-0.2,0.2-0.3,0.3
		s-0.2,0.1-0.3,0.1c-0.2,0-0.3,0-0.4-0.1l-4.2-1.1c-0.3-0.1-0.4-0.2-0.4-0.5c0-0.2,0.1-0.4,0.2-0.7c0.9-1.9,2.3-3.3,4.3-4.3
		c2-1,4.4-1.5,7.3-1.5c3.8,0,6.5,0.7,8.3,2.2c1.8,1.5,2.6,3.6,2.6,6.3v17.8c0,0.4-0.1,0.6-0.2,0.8c-0.1,0.2-0.3,0.2-0.7,0.2h-4.3
		c-0.3,0-0.5-0.1-0.7-0.3c-0.1-0.2-0.2-0.5-0.3-0.9l-0.1-1.5c0-0.3-0.2-0.5-0.4-0.5c-0.1,0-0.3,0.1-0.7,0.4
		C501.5,238.1,498.7,239.2,495.5,239.2z M504.5,225.8c-0.1-0.1-0.3-0.2-0.6-0.2l-2.1,0.2c-2.4,0.2-4.3,0.7-5.9,1.6
		c-1.6,0.9-2.3,2.1-2.3,3.7c0,1.1,0.4,2.1,1.2,2.7s1.9,1,3.3,1c1.7,0,3.3-0.5,4.6-1.6c1.3-1,1.9-2,1.9-3.1v-3.6
		C504.7,226.2,504.7,225.9,504.5,225.8z"/>
	<path class="st0" d="M516.5,237.8v-25c0-0.6,0.2-0.9,0.7-0.9h4.9c0.5,0,0.7,0.3,0.7,0.8v3.1c0,0.3,0.1,0.4,0.3,0.4
		c0.1,0,0.2-0.1,0.4-0.3c1.1-1.4,2.3-2.5,3.7-3.3c1.3-0.8,2.7-1.2,3.9-1.2c1.2,0,1.8,0.3,1.8,0.8v4.8c0,0.5-0.2,0.7-0.7,0.6
		c-0.9-0.2-2-0.4-3.1-0.4c-0.9,0-1.8,0.2-2.8,0.7c-1,0.5-1.8,1.1-2.4,1.8c-0.6,0.8-0.9,1.5-0.9,2.3v15.4c0,0.7-0.4,1-1.2,1h-4.5
		C516.8,238.7,516.5,238.4,516.5,237.8z"/>
	<path class="st0" d="M547.2,216.5c-0.3,0-0.5,0.2-0.5,0.6v13.5c0,1.3,0.3,2.2,0.8,2.7c0.5,0.5,1.4,0.8,2.5,0.8h3
		c0.2,0,0.4,0.1,0.5,0.2c0.1,0.1,0.2,0.3,0.2,0.5l-0.1,2.6c0,0.6-0.3,0.9-1,1c-1.2,0.2-3.1,0.3-5.6,0.3c-2.3,0-4-0.5-5.2-1.6
		s-1.8-2.7-1.8-4.8v-15.1c0-0.4-0.2-0.7-0.6-0.7h-3.4c-0.5,0-0.8-0.3-0.8-0.8v-3.2c0-0.4,0.3-0.7,0.8-0.7h3.7c0.3,0,0.5-0.2,0.5-0.5
		l0.7-7.8c0-0.3,0.1-0.5,0.2-0.6c0.1-0.1,0.3-0.2,0.5-0.2h4.5c0.2,0,0.4,0.1,0.5,0.2c0.1,0.2,0.2,0.4,0.2,0.6v7.7
		c0,0.3,0.2,0.5,0.5,0.5h5.7c0.5,0,0.8,0.2,0.8,0.7v3.2c0,0.5-0.3,0.8-0.9,0.8H547.2z"/>
	<path class="st1" d="M565.1,237.6c0,0.4-0.1,0.6-0.3,0.8s-0.5,0.3-1,0.3h-5.1c-0.4,0-0.6-0.1-0.8-0.2s-0.2-0.4-0.2-0.7v-5.7
		c0-0.6,0.2-0.9,0.7-0.9h6c0.5,0,0.7,0.3,0.7,0.8V237.6z"/>
	<path class="st0" d="M629.9,201.6c0.2,0.2,0.2,0.6,0.1,1l-10.3,35.2c-0.2,0.6-0.7,1-1.4,1h-4.6c-0.7,0-1.2-0.3-1.4-0.9l-7-24.3
		c0-0.3-0.1-0.5-0.2-0.5s-0.2,0.2-0.3,0.5l-7,24.2c-0.1,0.3-0.3,0.6-0.5,0.7s-0.5,0.2-0.9,0.2h-4.7c-0.7,0-1.2-0.3-1.4-0.9
		L580,202.6l-0.1-0.5c0-0.3,0.1-0.5,0.3-0.7c0.2-0.2,0.5-0.3,0.8-0.3h5.2c0.4,0,0.6,0.1,0.8,0.2c0.2,0.1,0.3,0.3,0.4,0.6l7.1,25.2
		c0.1,0.4,0.2,0.6,0.3,0.6c0.1,0,0.2-0.2,0.3-0.5l7.1-25.3c0.1-0.3,0.2-0.5,0.4-0.6c0.2-0.1,0.4-0.2,0.8-0.2h4.5
		c0.4,0,0.6,0.1,0.8,0.2c0.2,0.1,0.3,0.3,0.4,0.6l7.2,25.4c0.1,0.3,0.2,0.4,0.3,0.4c0.1,0,0.2-0.1,0.3-0.4L624,202
		c0.1-0.5,0.5-0.8,1.2-0.8h3.8C629.5,201.2,629.8,201.3,629.9,201.6z"/>
	<path class="st0" d="M637,237.4c-2-1.2-3.6-2.8-4.7-4.9c-1.1-2.1-1.7-4.5-1.7-7.1c0-2.7,0.6-5.2,1.7-7.3c1.1-2.1,2.7-3.8,4.7-5
		c2-1.2,4.3-1.8,6.9-1.8c2.6,0,4.9,0.6,6.9,1.8c2,1.2,3.6,2.9,4.7,5s1.7,4.5,1.7,7.2c0,2.7-0.6,5-1.7,7.1c-1.1,2.1-2.7,3.7-4.7,4.9
		c-2,1.2-4.3,1.8-6.9,1.8C641.3,239.2,639,238.6,637,237.4z M648.9,232.3c1.1-1.6,1.7-3.9,1.7-7c0-3.1-0.6-5.4-1.7-7.1
		c-1.1-1.6-2.8-2.5-4.9-2.5c-2.1,0-3.8,0.8-4.9,2.5c-1.2,1.6-1.7,4-1.7,7.1c0,3,0.6,5.3,1.7,7c1.2,1.6,2.8,2.4,4.9,2.4
		C646.1,234.7,647.7,233.9,648.9,232.3z"/>
	<path class="st0" d="M661.6,237.8v-25c0-0.6,0.2-0.9,0.7-0.9h4.9c0.5,0,0.7,0.3,0.7,0.8v3.1c0,0.3,0.1,0.4,0.3,0.4
		c0.1,0,0.2-0.1,0.4-0.3c1.1-1.4,2.3-2.5,3.7-3.3c1.3-0.8,2.7-1.2,3.9-1.2c1.2,0,1.8,0.3,1.8,0.8v4.8c0,0.5-0.2,0.7-0.7,0.6
		c-0.9-0.2-2-0.4-3.1-0.4c-0.9,0-1.8,0.2-2.8,0.7c-1,0.5-1.8,1.1-2.4,1.8c-0.6,0.8-0.9,1.5-0.9,2.3v15.4c0,0.7-0.4,1-1.2,1h-4.5
		C662,238.7,661.6,238.4,661.6,237.8z"/>
	<path class="st0" d="M707,238.1c0,0.4-0.3,0.6-0.8,0.6h-5.6c-0.5,0-0.9-0.3-1.2-0.9l-6.1-11.3c-0.1-0.3-0.2-0.4-0.4-0.4
		c-0.1,0-0.2,0.1-0.4,0.3l-4.2,4.1c-0.3,0.2-0.5,0.6-0.5,1.2v6c0,0.4-0.1,0.7-0.3,0.9c-0.2,0.2-0.5,0.2-0.9,0.2h-4.4
		c-0.4,0-0.6-0.1-0.8-0.2c-0.2-0.1-0.2-0.4-0.2-0.7v-35.7c0-0.6,0.3-0.9,0.8-0.9h5.1c0.5,0,0.7,0.3,0.7,0.8v21.6
		c0,0.3,0.1,0.4,0.2,0.4c0.1,0,0.3-0.1,0.4-0.3l10.5-11.2c0.5-0.5,0.9-0.7,1.3-0.7h4.6c0.5,0,0.8,0.2,0.8,0.5c0,0.2-0.1,0.4-0.3,0.7
		l-7.4,7.5c-0.2,0.2-0.3,0.4-0.3,0.6c0,0.2,0.1,0.4,0.2,0.7l8.9,15.8C706.9,237.7,707,237.9,707,238.1z"/>
	<path class="st0" d="M735.5,216.4c-1.1-0.5-2.3-0.8-3.7-0.8c-1.5,0-2.7,0.3-3.7,0.9s-1.4,1.4-1.4,2.4c0,0.6,0.2,1.1,0.7,1.5
		s1.3,0.8,2.6,1.2l6,1.6c2.5,0.6,4.4,1.6,5.6,2.9c1.2,1.3,1.8,2.9,1.8,4.7c0,1.7-0.5,3.2-1.5,4.5c-1,1.3-2.4,2.2-4.1,2.9
		c-1.8,0.7-3.8,1-6,1c-2.8,0-5.2-0.5-7.3-1.5s-3.6-2.4-4.4-4c-0.1-0.3-0.2-0.5-0.2-0.6c0-0.2,0.1-0.4,0.3-0.5l3-1.5
		c0.2-0.1,0.4-0.2,0.6-0.2c0.1,0,0.3,0.1,0.5,0.3c0.8,1.1,1.8,2.1,3,2.7c1.2,0.7,2.7,1,4.5,1c1.7,0,3.1-0.3,4.2-0.9
		c1.1-0.6,1.6-1.4,1.6-2.4c0-0.7-0.3-1.3-0.9-1.8c-0.6-0.5-1.6-0.9-3.1-1.3l-5.1-1.2c-2.6-0.6-4.4-1.5-5.6-2.7
		c-1.2-1.2-1.8-2.8-1.8-4.6c0-1.6,0.4-3.1,1.3-4.4c0.9-1.3,2.2-2.3,3.8-3c1.7-0.7,3.6-1.1,5.8-1.1c2.4,0,4.5,0.4,6.4,1.3
		c1.8,0.9,3.2,2,4.1,3.4c0.2,0.3,0.3,0.5,0.3,0.7c0,0.2-0.1,0.3-0.3,0.4l-3.1,1.6c-0.2,0.1-0.3,0.1-0.4,0.1c-0.3,0-0.5-0.1-0.7-0.4
		C737.4,217.6,736.6,216.9,735.5,216.4z"/>
	<path class="st0" d="M747.7,238.5c-0.1-0.1-0.2-0.4-0.2-0.7v-25c0-0.6,0.2-0.9,0.7-0.9h5c0.5,0,0.7,0.3,0.7,0.8v2.6
		c0,0.2,0.1,0.3,0.2,0.4c0.1,0,0.2,0,0.4-0.2c1.5-1.4,2.9-2.4,4.3-3.1c1.3-0.7,2.8-1,4.3-1c1.8,0,3.3,0.4,4.6,1.3
		c1.2,0.9,2.1,2,2.6,3.4c0.1,0.1,0.2,0.2,0.3,0.2c0.1,0,0.3-0.1,0.5-0.3c3-3,6-4.5,8.9-4.5c2.4,0,4.3,0.7,5.7,2.1
		c1.4,1.4,2.1,3.4,2.1,5.9v18.2c0,0.7-0.4,1.1-1.1,1.1h-4.6c-0.3,0-0.5-0.1-0.7-0.2c-0.1-0.1-0.2-0.4-0.2-0.7v-17.4
		c0-1.3-0.3-2.3-1-3.1c-0.7-0.7-1.6-1.1-2.9-1.1c-1,0-2.1,0.3-3,0.8c-1,0.6-1.9,1.2-2.6,2c-0.4,0.4-0.6,0.9-0.6,1.5v17.1
		c0,0.7-0.4,1.1-1.1,1.1h-4.6c-0.6,0-0.9-0.3-0.9-0.9v-17.4c0-1.3-0.3-2.3-1-3.1c-0.7-0.7-1.6-1.1-3-1.1c-1.1,0-2.1,0.3-3.1,0.8
		c-1,0.5-2,1.4-3.2,2.6v18c0,0.4-0.1,0.6-0.3,0.8c-0.2,0.2-0.5,0.2-0.9,0.2h-4.5C748.1,238.7,747.8,238.6,747.7,238.5z"/>
	<path class="st0" d="M799.9,239.2c-2.6,0-4.6-0.7-6.1-2s-2.2-3.1-2.2-5.3c0-2.8,1.2-5,3.7-6.7c2.5-1.6,6-2.6,10.4-2.7l2.5-0.2
		c0.5-0.1,0.8-0.3,0.8-0.8v-1.2c0-1.5-0.4-2.6-1.3-3.5c-0.9-0.8-2.1-1.2-3.7-1.2c-2.6,0-4.5,1.1-5.9,3.3c-0.1,0.1-0.2,0.2-0.3,0.3
		s-0.2,0.1-0.3,0.1c-0.2,0-0.3,0-0.4-0.1l-4.2-1.1c-0.3-0.1-0.4-0.2-0.4-0.5c0-0.2,0.1-0.4,0.2-0.7c0.9-1.9,2.3-3.3,4.3-4.3
		c2-1,4.4-1.5,7.3-1.5c3.8,0,6.5,0.7,8.3,2.2c1.8,1.5,2.6,3.6,2.6,6.3v17.8c0,0.4-0.1,0.6-0.2,0.8c-0.1,0.2-0.3,0.2-0.7,0.2h-4.3
		c-0.3,0-0.5-0.1-0.7-0.3c-0.1-0.2-0.2-0.5-0.3-0.9l-0.1-1.5c0-0.3-0.2-0.5-0.4-0.5c-0.1,0-0.3,0.1-0.7,0.4
		C805.8,238.1,803.1,239.2,799.9,239.2z M808.9,225.8c-0.1-0.1-0.3-0.2-0.6-0.2l-2.1,0.2c-2.4,0.2-4.3,0.7-5.9,1.6
		c-1.6,0.9-2.3,2.1-2.3,3.7c0,1.1,0.4,2.1,1.2,2.7s1.9,1,3.3,1c1.7,0,3.3-0.5,4.6-1.6c1.3-1,1.9-2,1.9-3.1v-3.6
		C809.1,226.2,809,225.9,808.9,225.8z"/>
	<path class="st0" d="M820.9,237.8v-25c0-0.6,0.2-0.9,0.7-0.9h4.9c0.5,0,0.7,0.3,0.7,0.8v3.1c0,0.3,0.1,0.4,0.3,0.4
		c0.1,0,0.2-0.1,0.4-0.3c1.1-1.4,2.3-2.5,3.7-3.3c1.3-0.8,2.7-1.2,3.9-1.2c1.2,0,1.8,0.3,1.8,0.8v4.8c0,0.5-0.2,0.7-0.7,0.6
		c-0.9-0.2-2-0.4-3.1-0.4c-0.9,0-1.8,0.2-2.8,0.7c-1,0.5-1.8,1.1-2.4,1.8c-0.6,0.8-0.9,1.5-0.9,2.3v15.4c0,0.7-0.4,1-1.2,1h-4.5
		C821.2,238.7,820.9,238.4,820.9,237.8z"/>
	<path class="st0" d="M851.6,216.5c-0.3,0-0.5,0.2-0.5,0.6v13.5c0,1.3,0.3,2.2,0.8,2.7c0.5,0.5,1.4,0.8,2.5,0.8h3
		c0.2,0,0.4,0.1,0.5,0.2c0.1,0.1,0.2,0.3,0.2,0.5l-0.1,2.6c0,0.6-0.3,0.9-1,1c-1.2,0.2-3.1,0.3-5.6,0.3c-2.3,0-4-0.5-5.2-1.6
		s-1.8-2.7-1.8-4.8v-15.1c0-0.4-0.2-0.7-0.6-0.7h-3.4c-0.5,0-0.8-0.3-0.8-0.8v-3.2c0-0.4,0.3-0.7,0.8-0.7h3.7c0.3,0,0.5-0.2,0.5-0.5
		l0.7-7.8c0-0.3,0.1-0.5,0.2-0.6c0.1-0.1,0.3-0.2,0.5-0.2h4.5c0.2,0,0.4,0.1,0.5,0.2c0.1,0.2,0.2,0.4,0.2,0.6v7.7
		c0,0.3,0.2,0.5,0.5,0.5h5.7c0.5,0,0.8,0.2,0.8,0.7v3.2c0,0.5-0.3,0.8-0.9,0.8H851.6z"/>
	<path class="st1" d="M869.4,237.6c0,0.4-0.1,0.6-0.3,0.8s-0.5,0.3-1,0.3h-5.1c-0.4,0-0.6-0.1-0.8-0.2s-0.2-0.4-0.2-0.7v-5.7
		c0-0.6,0.2-0.9,0.7-0.9h6c0.5,0,0.7,0.3,0.7,0.8V237.6z"/>
</g>
<path class="st0" d="M405,111.1c-0.2-0.3-0.4-0.5-0.6-0.8c0-0.1-0.1-0.1-0.1-0.2C393.8,95.7,378.8,93,378.8,93
	c0.1,0,11.4-2.6,21.4-15.8c0.1-0.1,0.2-0.3,0.3-0.4c0.7-0.9,1.4-1.9,2-2.9c0.1-0.2,0.2-0.3,0.3-0.5h0c2.8-4.9,4.2-10.5,4.2-16.9
	c0-14.1-5.8-24.7-17.4-32C378,17.2,361.2,13.6,339,13.6h-62.9c-1.5,0-2.6,0.5-3.5,1.4c-0.9,1-1.3,2.2-1.3,3.8v153.5
	c0,1.2,0.4,2.2,1.2,3.1c0.8,0.9,1.9,1.3,3.2,1.3h66.4c23.2,0,40.4-3.6,51.8-10.9c11.4-7.3,17-18.4,17-33.3
	C411,124,409,116.8,405,111.1z M315.7,47.2c0-1.5,0.3-2.5,1-3.1c0.7-0.6,1.9-0.9,3.6-0.9h20.2c6.6,0,12,1.6,16.2,4.9
	c4.2,3.3,6.3,7.7,6.3,13.3c0,5.4-1.9,9.7-5.8,12.9c-3.9,3.2-8.8,4.7-14.8,4.7H319c-1.3,0-2.2-0.4-2.6-1.1c-0.4-0.7-0.7-1.9-0.7-3.5
	V47.2z M358.6,141.7c-4.1,3.6-10,5.4-17.6,5.4h-22c-1.3,0-2.2-0.3-2.6-1s-0.7-1.8-0.7-3.4v-28.8c0-1.6,0.3-2.7,1-3.4
	c0.7-0.7,1.9-1,3.6-1h22c6.7,0,12.2,1.7,16.3,4.9c4.1,3.3,6.2,7.8,6.2,13.5C364.8,133.5,362.7,138.1,358.6,141.7z"/>
<path class="st1" d="M228.9,238.7H15.1c-3.1,0-5.7-2.6-5.7-5.7V19.2c0-3.1,2.6-5.7,5.7-5.7h213.8c3.1,0,5.7,2.6,5.7,5.7v213.8
	C234.6,236.2,232,238.7,228.9,238.7z"/>
<g>
	<path class="st2" d="M149.9,134.4c-1.8,0-3.3-1.3-3.5-3.1c-0.2-1.9,1.2-3.7,3.1-3.9c10.1-1.1,15.4-9.6,15.4-9.7
		c8.5-14.2-1.1-24.3-1.6-24.8c-1.3-1.4-1.3-3.6,0-4.9c1.4-1.4,3.6-1.3,4.9,0c4.9,4.9,11.7,18.1,2.6,33.3c-0.3,0.5-7,11.6-20.7,13.1
		C150.2,134.4,150.1,134.4,149.9,134.4z"/>
	<path class="st2" d="M127.2,187.7c-13,0-28.8-6.6-47.1-19.7c-1.6-1.1-1.9-3.3-0.8-4.9c1.1-1.6,3.3-1.9,4.9-0.8
		c21.6,15.4,39.5,21.3,51.8,16.9c11.3-4,14.4-15.1,14.6-15.6l0-0.2c4.9-15.3-12.4-24.4-13.2-24.7c-4.8-2.6-26.5-13.1-26.7-13.2
		c-13-6.8-14.1-19.5-12.9-25.5c1.8-14.5,15.3-21.5,15.9-21.8c22.1-11.1,44.8,3.1,45.7,3.7c1.6,1,2.1,3.2,1.1,4.8
		c-1,1.6-3.2,2.1-4.8,1.1c-0.3-0.2-20.3-12.6-38.8-3.4c-0.1,0-10.8,5.7-12.1,16.6l-0.1,0.3c-0.1,0.5-2.3,11.9,9.2,17.9
		c0.8,0.4,22,10.7,26.8,13.3c8,4.1,21.9,16.3,16.6,33c-0.4,1.4-4.6,15.1-18.9,20.2C134.9,187,131.2,187.7,127.2,187.7z"/>
	<path class="st2" d="M74,162c-0.8,0-1.7-0.3-2.3-0.9c-1.4-1.3-1.5-3.5-0.2-4.9c14.1-15.6,19.7-34,19.8-34.2
		c0.6-1.9,2.5-2.9,4.4-2.4c1.9,0.6,2.9,2.5,2.4,4.4c-0.2,0.8-6.1,20.1-21.3,36.9C75.9,161.6,74.9,162,74,162z"/>
	<path class="st2" d="M137.6,123.7c-0.3,0-0.5,0-0.8-0.1c-7.9-1.9-15.6-5.1-20.1-8.5c-4.9-3.7-6.1-7.8-6.3-10.6
		c-0.4-7.2,5.3-12.7,6-13.3c13.7-12.3,34.5,0.3,35.4,0.8c1.6,1,2.2,3.2,1.2,4.8c-1,1.6-3.2,2.2-4.8,1.2c-0.2-0.1-17.3-10.3-27-1.6
		c-1.1,1-3.9,4.5-3.7,7.8c0.1,1.9,1.3,3.7,3.5,5.4c2.8,2.1,9.1,5.3,17.5,7.3c1.9,0.4,3,2.3,2.6,4.2
		C140.6,122.6,139.2,123.7,137.6,123.7z"/>
	<path class="st2" d="M148.6,123.2c-1.5,0-2.9-1-3.4-2.6c-0.5-1.9,0.6-3.8,2.4-4.3c1.8-0.5,6.8-2.6,8.2-6c0.8-1.8,0.6-3.8-0.7-6.3
		c-0.9-1.7-0.2-3.8,1.5-4.7c1.7-0.9,3.8-0.2,4.7,1.5c2.8,5.5,2,9.7,0.8,12.3c-3.1,7-11.8,9.6-12.8,9.9
		C149.2,123.2,148.9,123.2,148.6,123.2z"/>
	<path class="st2" d="M141.9,114.6c-1.1,0-2.1-0.5-2.8-1.4c-1.1-1.5-0.8-3.7,0.7-4.9c0.5-0.4,1-1.1,1-1.3c0-0.2-0.8-1.4-4.1-2.8
		c-0.6-0.2-6.2-2.1-8.1,1.5c-0.9,1.7-3,2.4-4.7,1.5c-1.7-0.9-2.4-3-1.5-4.7c3.9-7.3,12.7-6.3,16.8-4.7l0.1,0c5.2,2.2,8,5,8.4,8.4
		c0.5,4.5-3.3,7.4-3.7,7.7C143.3,114.4,142.6,114.6,141.9,114.6z"/>
	<path class="st2" d="M126.6,175.4c-1.7,0-3.4-0.2-5.3-0.6c-1.4-0.3-19.9-3.8-32-14.9c-1.4-1.3-1.5-3.5-0.2-4.9
		c1.3-1.4,3.5-1.5,4.9-0.2c10.7,9.8,28.3,13.1,28.5,13.1l0.1,0c4.8,1,8.9,0.3,12.1-2.2c2.3-1.8,3.4-3.8,3.6-4.2
		c2.9-7.3-5-11.4-5.9-11.8c-7.6-3.8-28.7-13.6-28.9-13.7c-1.8-0.8-2.5-2.9-1.7-4.7c0.8-1.8,2.9-2.5,4.6-1.7c0.9,0.4,21.4,10,29,13.7
		c5.1,2.4,13.8,9.9,9.3,20.8l0,0.1C142.9,168.6,136.9,175.4,126.6,175.4z M141.6,163L141.6,163L141.6,163z"/>
	<path class="st2" d="M122.4,165.3c-2.1,0-4.2-0.5-6.1-1.6c-0.7-0.3-9.1-4.7-15.2-7.2c-1.8-0.7-2.7-2.8-1.9-4.5
		c0.7-1.8,2.8-2.7,4.5-2c6.8,2.7,15.6,7.3,15.9,7.5l0.1,0c2,1.1,3.9,0.8,4.6,0.3c0.1-0.1,0.4-0.4,0.1-1.3c-0.4-0.5-1.7-1.3-2.7-1.8
		c-1.7-0.8-2.5-2.9-1.6-4.7c0.8-1.7,2.9-2.5,4.7-1.6c1.9,0.9,5.3,2.9,6.2,5.6c1.2,3.5,0.4,7-2.2,9.2
		C127,164.6,124.8,165.3,122.4,165.3z M124.4,156.6L124.4,156.6L124.4,156.6z"/>
	<path class="st2" d="M94.5,151.8c-0.7,0-1.3-0.2-1.9-0.6c-1.6-1.1-2.1-3.2-1-4.8c2.5-3.8,3.9-6.6,3.9-6.7c0.8-1.7,2.9-2.5,4.7-1.6
		c1.7,0.8,2.5,2.9,1.6,4.7c-0.1,0.1-1.6,3.2-4.3,7.4C96.8,151.3,95.7,151.8,94.5,151.8z"/>
	<path class="st2" d="M90.3,113.7c-1.6,0-3-1.1-3.4-2.7c-0.1-0.3-6.6-29.8,22.5-43.6c1-0.5,26.1-12.6,55.1,3.4
		c1.7,0.9,2.3,3.1,1.4,4.8c-0.9,1.7-3.1,2.3-4.8,1.4c-25.8-14.2-48.5-3.4-48.7-3.2c-23.9,11.4-18.9,34.7-18.7,35.7
		c0.4,1.9-0.7,3.8-2.6,4.2C90.8,113.7,90.6,113.7,90.3,113.7z"/>
	<path class="st2" d="M159.8,143.8c-1.5,0-2.9-1-3.4-2.5c-0.5-1.9,0.5-3.8,2.4-4.3c20-5.7,21.6-24.2,21.7-25
		c0.1-1.9,1.8-3.4,3.7-3.2c1.9,0.1,3.4,1.8,3.2,3.7c0,0.2-1.9,24.1-26.7,31.2C160.5,143.8,160.2,143.8,159.8,143.8z"/>
	<path class="st2" d="M126.6,199.6c-6.3,0-13.5-1-21.7-3.7c-1.4-0.4-19.8-6.1-39.7-24.7c-1.4-1.3-1.5-3.5-0.2-4.9
		c1.3-1.4,3.5-1.5,4.9-0.2c19,17.8,36.7,23,36.9,23.1c0,0,0.1,0,0.1,0c34.2,11.1,48.7-8.9,49.3-9.7c9.7-14.2,7-25.8,6.9-26.3
		c-0.5-1.9,0.7-3.8,2.5-4.2c1.9-0.5,3.8,0.6,4.2,2.5c0.2,0.6,3.7,15-7.9,32C161.5,184.4,150.6,199.6,126.6,199.6z"/>
	<path class="st2" d="M71.2,146.7c-0.9,0-1.8-0.4-2.5-1.1c-1.3-1.4-1.3-3.6,0.1-4.9c3-2.9,6.4-9.8,7.4-12.2l0.1-0.2
		c1.7-3.5,0.6-9.1,0-10.9c-3.7-11.9-1.4-18.2-1.1-18.9c0.7-1.8,2.8-2.7,4.6-1.9c1.8,0.7,2.6,2.7,2,4.5c-0.1,0.2-1.6,5,1.3,14.3
		c0.3,1,2.8,9.5-0.4,16c-0.6,1.3-4.5,10.2-9,14.4C72.9,146.4,72,146.7,71.2,146.7z"/>
	<circle class="st2" cx="184" cy="102.6" r="3"/>
	<circle class="st2" cx="129.7" cy="42.8" r="3"/>
	<circle class="st2" cx="196.3" cy="70" r="3"/>
	<circle class="st2" cx="141.3" cy="207.2" r="3.2"/>
	<circle class="st2" cx="64.9" cy="150.1" r="3"/>
	<path class="st2" d="M189.9,85.5c-1.1,0-2.2-0.5-2.9-1.5c-23.6-34.2-67.1-24.8-67.5-24.7c-1.9,0.4-3.8-0.8-4.2-2.6
		c-0.4-1.9,0.8-3.8,2.6-4.2c0.5-0.1,12.3-2.7,27.4-0.7c20.2,2.7,36.6,12.5,47.5,28.3c1.1,1.6,0.7,3.8-0.9,4.9
		C191.3,85.3,190.6,85.5,189.9,85.5z"/>
	<path class="st2" d="M189.9,66.6c-0.9,0-1.8-0.4-2.5-1.1c-20.2-20.6-47.4-19.1-47.7-19.1c-1.9,0.1-3.6-1.3-3.7-3.3
		c-0.1-1.9,1.3-3.6,3.3-3.7c1.2-0.1,30.7-1.7,53.2,21.2c1.4,1.4,1.3,3.6-0.1,4.9C191.7,66.2,190.8,66.6,189.9,66.6z"/>
	<path class="st2" d="M177.5,149.4c-1.1,0-2.2-0.5-2.9-1.5c-1.1-1.6-0.7-3.8,0.9-4.9c26.5-18.1,16.7-47.8,16.3-49
		c-0.6-1.8,0.3-3.8,2.2-4.4c1.8-0.6,3.8,0.3,4.4,2.2c0.1,0.4,12,35.9-18.9,57.1C178.9,149.2,178.2,149.4,177.5,149.4z"/>
	<path class="st2" d="M130.2,212.4c-44.2,0-69.4-27.5-70.4-28.7c-1.3-1.4-1.2-3.7,0.3-4.9c1.4-1.3,3.6-1.2,4.9,0.3
		c0.3,0.3,24.8,26.9,66.4,26.4c0,0,0,0,0,0c1.9,0,3.5,1.5,3.5,3.5c0,1.9-1.5,3.5-3.5,3.5C131.1,212.4,130.7,212.4,130.2,212.4z"/>
	<path class="st2" d="M113.8,223c-0.2,0-0.3,0-0.5,0c-38.6-5.1-57-25.8-57.7-26.7c-1.3-1.5-1.1-3.7,0.4-4.9c1.5-1.3,3.7-1.1,4.9,0.4
		c0.2,0.2,17.5,19.7,53.3,24.4c1.9,0.3,3.3,2,3,3.9C117,221.7,115.5,223,113.8,223z"/>
	<path class="st2" d="M150.7,207.7c-1.4,0-2.7-0.8-3.3-2.2c-0.7-1.8,0.2-3.8,2-4.5c28-11.2,25.7-40.9,25.6-42.1
		c-0.2-1.9,1.3-3.6,3.2-3.8c1.9-0.2,3.6,1.2,3.8,3.2c0,0.4,2.8,36.1-30,49.2C151.6,207.6,151.2,207.7,150.7,207.7z"/>
	<path class="st2" d="M63.3,138.2c-1,0-1.9-0.4-2.6-1.1c-1.3-1.4-1.2-3.6,0.2-4.9c6.2-5.6,4.5-14.1,4.4-14.5
		c-0.4-1.9,0.8-3.7,2.7-4.2c1.9-0.4,3.7,0.8,4.2,2.6c0.1,0.5,2.8,12.7-6.5,21.2C65,137.9,64.1,138.2,63.3,138.2z"/>
	<path class="st2" d="M51.6,189.8c-1.1,0-2.2-0.5-2.8-1.5c-6.2-8.6-8.6-17.3-7.2-25.7c2.2-13.1,13-20.8,13.5-21.1
		c1.6-1.1,3.8-0.7,4.9,0.9c1.1,1.6,0.7,3.8-0.9,4.9c-0.1,0.1-8.9,6.4-10.6,16.6c-1.1,6.5,0.9,13.4,6,20.4c1.1,1.6,0.8,3.8-0.8,4.9
		C53,189.6,52.3,189.8,51.6,189.8z"/>
	<path class="st2" d="M55.7,173.5c-1.7,0-3.1-1.2-3.4-2.9c-1.7-8.8,4.9-15.5,5.2-15.8c1.4-1.4,3.6-1.4,4.9,0c1.4,1.4,1.4,3.6,0,4.9
		c-0.1,0.1-4.2,4.5-3.3,9.6c0.4,1.9-0.9,3.7-2.8,4.1C56.1,173.5,55.9,173.5,55.7,173.5z"/>
	<path class="st2" d="M80.7,91.7c-0.1,0-0.2,0-0.3,0c-1.9-0.2-3.4-1.8-3.2-3.7c0.1-0.9,1.9-21.9,28.1-31.3c1.8-0.7,3.8,0.3,4.5,2.1
		c0.7,1.8-0.3,3.8-2.1,4.5C85.9,71,84.2,87.8,84.1,88.5C84,90.3,82.5,91.7,80.7,91.7z"/>
	<path class="st2" d="M66.2,106c-1.8,0-3.3-1.3-3.5-3.1c-0.1-0.5-1.3-13.5,5.1-27.7c10.7-23.8,33.9-32.2,51.5-35
		c1.9-0.3,3.7,1,4,2.9c0.3,1.9-1,3.7-2.9,4c-54.7,8.7-50.9,53.2-50.7,55.1c0.2,1.9-1.2,3.6-3.1,3.8C66.4,106,66.3,106,66.2,106z"/>
	<path class="st2" d="M189.9,50.6c-0.8,0-1.6-0.3-2.2-0.8c-16.1-13.5-36.9-14.6-37.1-14.6c-1.9-0.1-3.4-1.7-3.3-3.7
		c0.1-1.9,1.7-3.4,3.6-3.3c0.9,0,23.2,1.2,41.2,16.2c1.5,1.2,1.7,3.4,0.4,4.9C191.9,50.1,190.9,50.6,189.9,50.6z"/>
	<path class="st2" d="M130.2,224.2c-3,0-4.9-0.2-5.1-0.2c-1.9-0.2-3.3-2-3.1-3.9c0.2-1.9,2-3.3,3.9-3.1l0,0c0.2,0,17.8,1.9,34.3-7.4
		c1.7-0.9,3.8-0.3,4.8,1.3c0.9,1.7,0.3,3.8-1.3,4.8C150.6,223,137.3,224.2,130.2,224.2z"/>
	<path class="st2" d="M181.4,96.4c-1.6,0-3-1-3.4-2.6c-1.6-6.1-7.1-9.4-7.2-9.4c-1.7-1-2.2-3.1-1.3-4.8c1-1.7,3.1-2.3,4.8-1.3
		c0.3,0.2,8.2,4.7,10.5,13.7c0.5,1.9-0.6,3.8-2.5,4.3C182,96.3,181.7,96.4,181.4,96.4z"/>
</g>
</svg>
