<?xml version="1.0" encoding="iso-8859-1"?>
<!-- Uploaded to: SVG Repo, www.svgrepo.com, Generator: SVG Repo Mixer Tools -->
<svg fill="#336933" height="800px" width="800px" version="1.1" id="Layer_1" xmlns="http://www.w3.org/2000/svg" xmlns:xlink="http://www.w3.org/1999/xlink" 
	 viewBox="0 0 511.999 511.999" xml:space="preserve">
<g>
	<g>
		<path d="M476.192,28.501c6.52-6.52,6.52-17.091,0-23.611c-6.519-6.52-17.091-6.52-23.611,0l-50.436,50.436
			C362.774,21.372,311.542,0.812,255.594,0.812c-123.887,0-224.677,100.789-224.677,224.676c0,59.113,22.515,114.421,63.538,156.557
			v113.259c0,9.22,7.475,16.696,16.696,16.696h288.885c9.22,0,16.696-7.475,16.696-16.696V382.045
			c41.023-42.138,63.538-97.445,63.538-156.557c0.001-55.946-20.559-107.179-54.513-146.55L476.192,28.501z M127.846,478.608
			v-68.247c76.564,53.069,178.815,53.153,255.494,0v68.247H127.846z M446.879,225.489c0,107.122-86.933,191.284-191.284,191.284
			c-104.448,0-191.285-84.279-191.285-191.284c0-105.475,85.81-191.285,191.284-191.285c46.739,0,89.609,16.859,122.87,44.804
			l-50.195,50.195c-20.23-15.307-45.409-24.4-72.675-24.4c-66.547,0-120.686,54.14-120.686,120.686s54.14,120.686,120.686,120.686
			s120.686-54.14,120.686-120.686c0-27.266-9.094-52.445-24.4-72.675l50.195-50.195C430.02,135.88,446.879,178.749,446.879,225.489z
			 M243.789,237.294c6.519,6.52,17.091,6.521,23.611,0l60.567-60.567c9.417,13.932,14.921,30.717,14.921,48.762
			c0,48.135-39.16,87.295-87.295,87.295c-48.135,0-87.295-39.16-87.295-87.295s39.16-87.295,87.295-87.295
			c18.046,0,34.829,5.504,48.762,14.921l-60.567,60.567C237.269,220.203,237.269,230.773,243.789,237.294z"/>
	</g>
</g>
</svg>